<svg width="119" height="21" viewBox="0 0 119 21" fill="none" xmlns="http://www.w3.org/2000/svg">
<g clip-path="url(#clip0_228_5601)">
<path fill-rule="evenodd" clip-rule="evenodd" d="M118.852 20.1088H110.742L106.38 14.925H97.0664V20.1088H91.0052V10.0926H108.05C108.987 10.0926 109.776 9.89802 110.421 9.50703C111.065 9.11603 111.389 8.5791 111.389 7.89621C111.389 7.13405 111.095 6.56288 110.51 6.1827C109.924 5.80072 109.102 5.61153 108.05 5.61153H91.0052L94.9583 0.516033H107.553C108.663 0.516033 109.816 0.618736 111.007 0.824141C112.198 1.02955 113.281 1.39531 114.256 1.92324C115.232 2.45117 116.038 3.16288 116.672 4.06018C117.306 4.95748 117.623 6.11063 117.623 7.51603C117.623 8.27639 117.508 8.99892 117.272 9.6818C117.038 10.3647 116.701 10.9809 116.261 11.5268C115.821 12.0728 115.284 12.5377 114.65 12.9178C114.016 13.298 113.299 13.5665 112.495 13.7232C112.829 13.9773 113.2 14.2998 113.609 14.689C114.021 15.08 114.567 15.6169 115.25 16.2998L118.85 20.107L118.852 20.1088ZM66.1115 20.1088L69.7728 15.071H74.6917C75.2773 15.071 75.8881 15.071 76.5223 15.071C77.1565 15.071 77.7079 15.0908 78.1764 15.1304C77.9043 14.7791 77.5854 14.3341 77.225 13.7971C76.8646 13.2602 76.5169 12.7575 76.1854 12.289L72.6719 7.10522L63.4773 20.107H56.3025L68.8646 2.39171C69.2755 1.82594 69.7926 1.31784 70.4178 0.869186C71.043 0.420538 71.834 0.195312 72.789 0.195312C73.7439 0.195312 74.4737 0.404322 75.0881 0.824141C75.7025 1.24396 76.225 1.76648 76.6538 2.39171L88.8953 20.1088H66.1115ZM55.7439 15.071L51.8484 20.1088H32.989V0.517835H55.6845L51.7601 5.61333H39.0809V7.95567H54.6016L51.1169 12.4061H39.0809V15.071H55.7439ZM16.9746 7.86739H29.5079V20.1088H16.0665C14.3674 20.1088 12.7962 19.8548 11.3511 19.3467C9.90609 18.8386 8.66285 18.1413 7.6178 17.253C6.57276 16.3647 5.75294 15.3106 5.15834 14.0908C4.56375 12.871 4.26465 11.5485 4.26465 10.1232C4.26465 8.69802 4.56195 7.39531 5.15834 6.21333C5.75474 5.03135 6.57456 4.01693 7.6178 3.16829C8.66285 2.31964 9.90609 1.66558 11.3511 1.20612C12.7962 0.746664 14.3674 0.517835 16.0665 0.517835H30.0935L26.1692 5.61333H16.0665C15.2466 5.61333 14.4845 5.73045 13.7818 5.96468C13.0791 6.19892 12.4683 6.53045 11.9511 6.96108C11.434 7.38991 11.0286 7.89261 10.7367 8.46919C10.443 9.04576 10.2971 9.6836 10.2971 10.3863C10.2971 11.089 10.4376 11.7286 10.7223 12.3052C11.0052 12.88 11.4052 13.3737 11.9223 13.7845C12.4394 14.1953 13.0502 14.5124 13.7529 14.7359C14.4556 14.9611 15.2268 15.0728 16.0665 15.0728H23.4755V12.2314H13.3439L16.9746 7.86739Z" fill="#666666"/>
</g>
<g clip-path="url(#clip1_228_5601)">
<path fill-rule="evenodd" clip-rule="evenodd" d="M119.212 20.1088H111.102L106.74 14.925H97.4268V20.1088H91.3655V10.0926H108.411C109.348 10.0926 110.137 9.89802 110.782 9.50703C111.425 9.11603 111.749 8.5791 111.749 7.89621C111.749 7.13405 111.456 6.56288 110.87 6.1827C110.284 5.80072 109.463 5.61153 108.411 5.61153H91.3655L95.3187 0.516033H107.913C109.023 0.516033 110.176 0.618736 111.367 0.824141C112.558 1.02955 113.641 1.39531 114.616 1.92324C115.593 2.45117 116.398 3.16288 117.032 4.06018C117.666 4.95748 117.984 6.11063 117.984 7.51603C117.984 8.27639 117.868 8.99892 117.632 9.6818C117.398 10.3647 117.061 10.9809 116.621 11.5268C116.182 12.0728 115.645 12.5377 115.011 12.9178C114.376 13.298 113.659 13.5665 112.856 13.7232C113.189 13.9773 113.56 14.2998 113.969 14.689C114.382 15.08 114.928 15.6169 115.611 16.2998L119.211 20.107L119.212 20.1088ZM66.4719 20.1088L70.1331 15.071H75.052C75.6376 15.071 76.2484 15.071 76.8827 15.071C77.5169 15.071 78.0682 15.0908 78.5367 15.1304C78.2646 14.7791 77.9457 14.3341 77.5854 13.7971C77.225 13.2602 76.8773 12.7575 76.5457 12.289L73.0322 7.10522L63.8376 20.107H56.6628L69.225 2.39171C69.6358 1.82594 70.1529 1.31784 70.7782 0.869186C71.4034 0.420538 72.1944 0.195312 73.1493 0.195312C74.1043 0.195312 74.834 0.404322 75.4484 0.824141C76.0628 1.24396 76.5854 1.76648 77.0142 2.39171L89.2556 20.1088H66.4719ZM56.1043 15.071L52.2088 20.1088H33.3493V0.517835H56.0448L52.1205 5.61333H39.4412V7.95567H54.9619L51.4773 12.4061H39.4412V15.071H56.1043ZM17.3349 7.86739H29.8682V20.1088H16.4268C14.7277 20.1088 13.1565 19.8548 11.7115 19.3467C10.2664 18.8386 9.0232 18.1413 7.97815 17.253C6.93311 16.3647 6.11329 15.3106 5.51869 14.0908C4.9241 12.871 4.625 11.5485 4.625 10.1232C4.625 8.69802 4.9223 7.39531 5.51869 6.21333C6.11509 5.03135 6.93491 4.01693 7.97815 3.16829C9.0232 2.31964 10.2664 1.66558 11.7115 1.20612C13.1565 0.746664 14.7277 0.517835 16.4268 0.517835H30.4538L26.5295 5.61333H16.4268C15.607 5.61333 14.8448 5.73045 14.1421 5.96468C13.4394 6.19892 12.8286 6.53045 12.3115 6.96108C11.7944 7.38991 11.389 7.89261 11.0971 8.46919C10.8034 9.04576 10.6574 9.6836 10.6574 10.3863C10.6574 11.089 10.798 11.7286 11.0827 12.3052C11.3655 12.88 11.7655 13.3737 12.2827 13.7845C12.7998 14.1953 13.4106 14.5124 14.1133 14.7359C14.816 14.9611 15.5872 15.0728 16.4268 15.0728H23.8358V12.2314H13.7043L17.3349 7.86739Z" fill="#DB3727"/>
</g>
<defs>
<clipPath id="clip0_228_5601">
<rect width="86.3063" height="20" fill="white" transform="translate(32.5527 0.195312)"/>
</clipPath>
<clipPath id="clip1_228_5601">
<rect width="30.6306" height="20" fill="white" transform="translate(0.300781 0.195312)"/>
</clipPath>
</defs>
</svg>
