<svg width="24" height="24" viewBox="0 0 24 24" fill="none" xmlns="http://www.w3.org/2000/svg">
<g clip-path="url(#clip0_228_4759)">
<path fill-rule="evenodd" clip-rule="evenodd" d="M16.8147 16.7346C16.2848 16.7346 15.7766 16.5241 15.4019 16.1494C15.0272 15.7747 14.8167 15.2665 14.8167 14.7365C14.8167 14.2066 15.0272 13.6984 15.4019 13.3237C15.7766 12.949 16.2848 12.7385 16.8147 12.7385C17.3445 12.7385 17.8526 12.949 18.2273 13.3236C18.6019 13.6982 18.8123 14.2063 18.8123 14.7361C18.8123 15.2659 18.6019 15.774 18.2273 16.1486C17.8526 16.5232 17.3445 16.7346 16.8147 16.7346ZM5.85434 7.09859C5.60882 6.76243 5.14154 6.02851 6.4061 5.74867L18.0379 4.55363C18.0379 4.55363 18.0811 3.85315 18.0731 3.03827C18.0661 2.22339 17.8056 1.31523 16.0632 1.63203L3.99138 5.03235C3.99138 5.03235 2.28418 5.16083 2.28418 7.30803L2.29122 20.1094C2.29122 20.6789 2.51744 21.225 2.92012 21.6277C3.3228 22.0304 3.86895 22.2566 4.43842 22.2566H19.4723C20.0418 22.2566 20.588 22.0304 20.9906 21.6277C21.3933 21.225 21.6195 20.6789 21.6195 20.1094L21.6125 9.24139C21.6125 8.67192 21.3863 8.12577 20.9836 7.72309C20.5809 7.32041 20.0348 7.09419 19.4653 7.09419L5.85346 7.09771L5.85434 7.09859Z" fill="#DB3727"/>
</g>
<defs>
<clipPath id="clip0_228_4759">
<rect width="19.36" height="22" fill="white" transform="translate(2.25977 1)"/>
</clipPath>
</defs>
</svg>
