<svg width="53" height="52" viewBox="0 0 53 52" fill="none" xmlns="http://www.w3.org/2000/svg">
<g clip-path="url(#clip0_228_5548)">
<g opacity="0.56">
<path d="M26.4697 48C38.62 48 48.4697 38.1503 48.4697 26C48.4697 13.8497 38.62 4 26.4697 4C14.3195 4 4.46973 13.8497 4.46973 26C4.46973 38.1503 14.3195 48 26.4697 48Z" fill="black" fill-opacity="0.06"/>
<path d="M26.499 6C22.5154 6.00756 18.62 7.1724 15.2872 9.35263C11.9545 11.5329 9.3282 14.6344 7.7283 18.2794C6.1284 21.9245 5.62394 25.9557 6.27637 29.8821C6.92879 33.8085 8.70993 37.4606 11.4028 40.3936C13.3262 42.4766 15.6605 44.1389 18.2586 45.276C20.8568 46.413 23.6625 47 26.499 47C29.3355 47 32.1412 46.413 34.7394 45.276C37.3376 44.1389 39.6719 42.4766 41.5952 40.3936C44.2881 37.4606 46.0693 33.8085 46.7217 29.8821C47.3741 25.9557 46.8696 21.9245 45.2697 18.2794C43.6699 14.6344 41.0436 11.5329 37.7108 9.35263C34.378 7.1724 30.4826 6.00756 26.499 6ZM26.499 42.9382C22.2443 42.9317 18.158 41.2765 15.0999 38.3209C16.0283 36.0626 17.6078 34.1311 19.6375 32.7717C21.6672 31.4124 24.0555 30.6866 26.499 30.6866C28.9425 30.6866 31.3309 31.4124 33.3606 32.7717C35.3903 34.1311 36.9697 36.0626 37.8982 38.3209C34.8401 41.2765 30.7538 42.9317 26.499 42.9382ZM22.3912 22.417C22.3912 21.6052 22.6321 20.8117 23.0835 20.1368C23.5349 19.4618 24.1764 18.9358 24.927 18.6251C25.6776 18.3145 26.5036 18.2332 27.3004 18.3916C28.0972 18.55 28.8292 18.9408 29.4037 19.5148C29.9782 20.0888 30.3694 20.8201 30.5279 21.6163C30.6864 22.4124 30.605 23.2376 30.2941 23.9876C29.9832 24.7375 29.4567 25.3785 28.7812 25.8295C28.1057 26.2805 27.3115 26.5212 26.499 26.5212C25.4096 26.5212 24.3647 26.0888 23.5944 25.3191C22.824 24.5494 22.3912 23.5055 22.3912 22.417ZM40.6915 34.7297C38.8564 31.5936 36.032 29.1541 32.6607 27.7935C33.7065 26.6087 34.3879 25.1476 34.6232 23.5855C34.8584 22.0234 34.6375 20.4266 33.987 18.9868C33.3365 17.547 32.284 16.3254 30.9558 15.4684C29.6276 14.6115 28.0801 14.1556 26.499 14.1556C24.9179 14.1556 23.3705 14.6115 22.0422 15.4684C20.714 16.3254 19.6615 17.547 19.011 18.9868C18.3605 20.4266 18.1396 22.0234 18.3749 23.5855C18.6101 25.1476 19.2915 26.6087 20.3373 27.7935C16.966 29.1541 14.1417 31.5936 12.3066 34.7297C10.8441 32.2407 10.0713 29.4074 10.0678 26.5212C10.0678 22.1672 11.799 17.9914 14.8804 14.9127C17.9619 11.8339 22.1412 10.1042 26.499 10.1042C30.8569 10.1042 35.0362 11.8339 38.1176 14.9127C41.1991 17.9914 42.9302 22.1672 42.9302 26.5212C42.9267 29.4074 42.154 32.2407 40.6915 34.7297Z" fill="black"/>
</g>
</g>
<g clip-path="url(#clip1_228_5548)">
<path d="M26.4841 50.9613C40.2673 50.9613 51.4408 39.7878 51.4408 26.0046C51.4408 12.2214 40.2673 1.04785 26.4841 1.04785C12.7009 1.04785 1.52734 12.2214 1.52734 26.0046C1.52734 39.7878 12.7009 50.9613 26.4841 50.9613Z" stroke="#DB3727" stroke-width="1.99654"/>
</g>
<defs>
<clipPath id="clip0_228_5548">
<rect width="44" height="44" fill="white" transform="translate(4.46973 4)"/>
</clipPath>
<clipPath id="clip1_228_5548">
<rect width="51.91" height="51.91" fill="white" transform="translate(0.529297 0.0498047)"/>
</clipPath>
</defs>
</svg>
